<svg width="999" height="254" viewBox="0 0 999 254" fill="none" xmlns="http://www.w3.org/2000/svg">
<path fill-rule="evenodd" clip-rule="evenodd" d="M252.924 9.38686C252.924 14.3961 249 18.4889 244.058 18.7595V234.686C249 234.957 252.924 239.049 252.924 244.059C252.924 249.243 248.721 253.446 243.537 253.446C238.528 253.446 234.435 249.522 234.164 244.58H18.7595C18.4891 249.522 14.3962 253.445 9.38686 253.445C4.20264 253.445 0 249.243 0 244.059C0 239.049 3.92373 234.957 8.8654 234.686V18.7595C3.92373 18.489 0 14.3962 0 9.38692C0 4.20269 4.20264 5.30857e-05 9.38686 5.30857e-05C14.3961 5.30857e-05 18.489 3.92383 18.7595 8.86553H234.164C234.435 3.9238 238.528 0 243.537 0C248.721 0 252.924 4.20264 252.924 9.38686ZM18.7595 9.90852H234.164C234.426 14.6775 238.247 18.4983 243.015 18.7595V234.686C238.247 234.947 234.426 238.768 234.164 243.537H18.7595C18.4981 238.768 14.6773 234.947 9.90839 234.686V18.7595C14.6774 18.4984 18.4983 14.6775 18.7595 9.90852Z" fill="#061C1C"/>
<path d="M54.351 97.7517C52.9369 97.7686 51.5416 97.4275 50.2948 96.7602C48.1718 95.6796 46.5629 93.8025 45.8197 91.5392C45.0765 89.2759 45.2595 86.8104 46.3287 84.6816C48.934 79.5305 52.8118 75.1301 57.5944 71.8978C62.377 68.6654 67.906 66.7081 73.6571 66.2116C79.4082 65.715 85.1909 66.6956 90.4568 69.0603C95.7227 71.4251 100.297 75.0956 103.747 79.724L106.631 83.5098C108.066 85.4223 108.682 87.8263 108.344 90.1929C108.006 92.5595 106.741 94.6948 104.829 96.1292C102.916 97.5636 100.512 98.1795 98.1456 97.8414C95.779 97.5033 93.6436 96.2389 92.2092 94.3264L89.3248 90.5406C87.7266 88.34 85.5777 86.5986 83.0937 85.4911C80.6097 84.3836 77.8781 83.949 75.173 84.2309C72.437 84.4807 69.8145 85.4447 67.5681 87.0267C65.3218 88.6086 63.5304 90.7529 62.3734 93.2448C61.5642 94.6473 60.3923 95.806 58.9806 96.599C57.5689 97.3921 55.9697 97.7903 54.351 97.7517Z" fill="#61D9E0"/>
<path d="M198.573 97.7521C196.908 97.7471 195.278 97.2812 193.862 96.4062C192.446 95.5311 191.299 94.281 190.55 92.7945C189.393 90.3026 187.602 88.1583 185.356 86.5764C183.109 84.9945 180.487 84.0304 177.751 83.7807C175.046 83.4987 172.314 83.9333 169.83 85.0408C167.346 86.1483 165.197 87.8898 163.599 90.0904L160.715 93.8762C159.28 95.7887 157.145 97.053 154.778 97.3911C152.412 97.7292 150.008 97.1133 148.095 95.679C146.183 94.2446 144.918 92.1092 144.58 89.7426C144.242 87.376 144.858 84.972 146.292 83.0595L149.177 79.2737C152.64 74.6526 157.227 70.9931 162.502 68.6426C167.777 66.2921 173.566 65.3284 179.318 65.8431C185.07 66.3578 190.595 68.3338 195.369 71.5836C200.143 74.8333 204.007 79.249 206.595 84.4116C207.664 86.5404 207.847 89.0059 207.104 91.2692C206.361 93.5325 204.752 95.4096 202.629 96.4902C201.408 97.2521 200.011 97.6867 198.573 97.7521Z" fill="#61D9E0"/>
<path d="M126.462 187.35C115.655 187.435 105.027 184.588 95.7094 179.112C86.392 173.636 78.7339 165.735 73.5506 156.252C72.3553 154.172 72.0351 151.703 72.6606 149.387C73.286 147.071 74.8059 145.098 76.8857 143.903C78.9656 142.708 81.4351 142.388 83.7509 143.013C86.0668 143.639 88.0394 145.158 89.2347 147.238C92.914 153.888 98.3074 159.431 104.854 163.291C111.401 167.151 118.862 169.186 126.462 169.186C134.062 169.186 141.523 167.151 148.07 163.291C154.617 159.431 160.01 153.888 163.689 147.238C164.281 146.208 165.07 145.305 166.011 144.58C166.952 143.855 168.026 143.323 169.173 143.013C170.32 142.703 171.516 142.623 172.694 142.775C173.872 142.928 175.008 143.311 176.038 143.903C177.068 144.495 177.971 145.284 178.696 146.225C179.421 147.166 179.954 148.24 180.263 149.387C180.573 150.534 180.654 151.73 180.501 152.908C180.348 154.086 179.965 155.222 179.373 156.252C174.19 165.735 166.532 173.636 157.215 179.112C147.897 184.588 137.269 187.435 126.462 187.35Z" fill="#061C1C"/>
<path d="M323.016 158.344C312.2 158.344 303.944 155.336 298.248 149.32C292.616 143.304 289.8 134.76 289.8 123.688C289.8 118.184 290.664 113.288 292.392 109C294.12 104.648 296.488 101 299.496 98.056C302.504 95.048 306.088 92.776 310.248 91.24C314.408 89.704 318.92 88.936 323.784 88.936C326.6 88.936 329.16 89.16 331.464 89.608C333.768 89.992 335.784 90.472 337.512 91.048C339.24 91.56 340.68 92.104 341.832 92.68C342.984 93.256 343.816 93.704 344.328 94.024L340.008 106.12C337.96 105.032 335.56 104.104 332.808 103.336C330.12 102.568 327.048 102.184 323.592 102.184C321.288 102.184 319.016 102.568 316.776 103.336C314.6 104.104 312.648 105.352 310.92 107.08C309.256 108.744 307.912 110.92 306.888 113.608C305.864 116.296 305.352 119.56 305.352 123.4C305.352 126.472 305.672 129.352 306.312 132.04C307.016 134.664 308.104 136.936 309.576 138.856C311.112 140.776 313.096 142.312 315.528 143.464C317.96 144.552 320.904 145.096 324.36 145.096C326.536 145.096 328.488 144.968 330.216 144.712C331.944 144.456 333.48 144.168 334.824 143.848C336.168 143.464 337.352 143.048 338.376 142.6C339.4 142.152 340.328 141.736 341.16 141.352L345.288 153.352C343.176 154.632 340.2 155.784 336.36 156.808C332.52 157.832 328.072 158.344 323.016 158.344ZM395.855 155.272C393.423 155.976 390.287 156.616 386.447 157.192C382.607 157.832 378.575 158.152 374.351 158.152C370.063 158.152 366.479 157.576 363.599 156.424C360.783 155.272 358.543 153.672 356.879 151.624C355.215 149.512 354.031 147.016 353.327 144.136C352.623 141.256 352.271 138.088 352.271 134.632V106.504H366.575V132.904C366.575 137.512 367.183 140.84 368.399 142.888C369.615 144.936 371.887 145.96 375.215 145.96C376.239 145.96 377.327 145.928 378.479 145.864C379.631 145.736 380.655 145.608 381.551 145.48V106.504H395.855V155.272ZM423.779 146.728C426.403 146.728 428.259 146.472 429.347 145.96C430.435 145.448 430.979 144.456 430.979 142.984C430.979 141.832 430.275 140.84 428.867 140.008C427.459 139.112 425.315 138.12 422.435 137.032C420.195 136.2 418.147 135.336 416.291 134.44C414.499 133.544 412.963 132.488 411.683 131.272C410.403 129.992 409.411 128.488 408.707 126.76C408.003 125.032 407.651 122.952 407.651 120.52C407.651 115.784 409.411 112.04 412.931 109.288C416.451 106.536 421.283 105.16 427.427 105.16C430.499 105.16 433.443 105.448 436.259 106.024C439.075 106.536 441.315 107.112 442.979 107.752L440.483 118.888C438.819 118.312 436.995 117.8 435.011 117.352C433.091 116.904 430.915 116.68 428.483 116.68C424.003 116.68 421.763 117.928 421.763 120.424C421.763 121 421.859 121.512 422.051 121.96C422.243 122.408 422.627 122.856 423.203 123.304C423.779 123.688 424.547 124.136 425.507 124.648C426.531 125.096 427.811 125.608 429.347 126.184C432.483 127.336 435.075 128.488 437.123 129.64C439.171 130.728 440.771 131.944 441.923 133.288C443.139 134.568 443.971 136.008 444.419 137.608C444.931 139.208 445.187 141.064 445.187 143.176C445.187 148.168 443.299 151.944 439.523 154.504C435.811 157.064 430.531 158.344 423.683 158.344C419.203 158.344 415.459 157.96 412.451 157.192C409.507 156.424 407.459 155.784 406.307 155.272L408.707 143.656C411.139 144.616 413.635 145.384 416.195 145.96C418.755 146.472 421.283 146.728 423.779 146.728ZM455.396 93.928L469.7 91.624V106.504H486.884V118.408H469.7V136.168C469.7 139.176 470.212 141.576 471.236 143.368C472.324 145.16 474.468 146.056 477.668 146.056C479.204 146.056 480.772 145.928 482.372 145.672C484.036 145.352 485.54 144.936 486.884 144.424L488.9 155.56C487.172 156.264 485.252 156.872 483.14 157.384C481.028 157.896 478.436 158.152 475.364 158.152C471.46 158.152 468.228 157.64 465.668 156.616C463.108 155.528 461.06 154.056 459.524 152.2C457.988 150.28 456.9 147.976 456.26 145.288C455.684 142.6 455.396 139.624 455.396 136.36V93.928ZM543.89 131.656C543.89 135.624 543.314 139.272 542.162 142.6C541.01 145.864 539.346 148.68 537.17 151.048C534.994 153.352 532.37 155.144 529.298 156.424C526.29 157.704 522.898 158.344 519.122 158.344C515.41 158.344 512.018 157.704 508.946 156.424C505.938 155.144 503.346 153.352 501.17 151.048C498.994 148.68 497.298 145.864 496.082 142.6C494.866 139.272 494.258 135.624 494.258 131.656C494.258 127.688 494.866 124.072 496.082 120.808C497.362 117.544 499.09 114.76 501.266 112.456C503.506 110.152 506.13 108.36 509.138 107.08C512.21 105.8 515.538 105.16 519.122 105.16C522.77 105.16 526.098 105.8 529.106 107.08C532.178 108.36 534.802 110.152 536.978 112.456C539.154 114.76 540.85 117.544 542.066 120.808C543.282 124.072 543.89 127.688 543.89 131.656ZM529.298 131.656C529.298 127.24 528.402 123.784 526.61 121.288C524.882 118.728 522.386 117.448 519.122 117.448C515.858 117.448 513.33 118.728 511.538 121.288C509.746 123.784 508.85 127.24 508.85 131.656C508.85 136.072 509.746 139.592 511.538 142.216C513.33 144.776 515.858 146.056 519.122 146.056C522.386 146.056 524.882 144.776 526.61 142.216C528.402 139.592 529.298 136.072 529.298 131.656ZM582.714 130.216C582.714 125.608 582.106 122.344 580.89 120.424C579.738 118.504 577.722 117.544 574.842 117.544C573.946 117.544 573.018 117.608 572.058 117.736C571.098 117.8 570.17 117.896 569.274 118.024V157H554.97V108.232C556.186 107.912 557.594 107.592 559.194 107.272C560.858 106.888 562.586 106.568 564.378 106.312C566.234 105.992 568.122 105.768 570.042 105.64C571.962 105.448 573.85 105.352 575.706 105.352C579.354 105.352 582.298 105.832 584.538 106.792C586.842 107.688 588.73 108.776 590.202 110.056C592.25 108.584 594.586 107.432 597.21 106.6C599.898 105.768 602.362 105.352 604.602 105.352C608.634 105.352 611.93 105.928 614.49 107.08C617.114 108.168 619.194 109.736 620.73 111.784C622.266 113.832 623.322 116.264 623.898 119.08C624.474 121.896 624.762 125.032 624.762 128.488V157H610.458V130.216C610.458 125.608 609.85 122.344 608.634 120.424C607.482 118.504 605.466 117.544 602.586 117.544C601.818 117.544 600.73 117.736 599.322 118.12C597.978 118.504 596.858 118.984 595.962 119.56C596.41 121.032 596.698 122.6 596.826 124.264C596.954 125.864 597.018 127.592 597.018 129.448V157H582.714V130.216Z" fill="#061C1C"/>
<path d="M683.95 157.864C680.302 157.864 676.654 157.736 673.006 157.48C669.422 157.288 665.678 156.776 661.774 155.944V91.432C664.846 90.856 668.206 90.44 671.854 90.184C675.502 89.864 678.894 89.704 682.03 89.704C686.254 89.704 690.126 90.024 693.646 90.664C697.23 91.24 700.302 92.264 702.862 93.736C705.422 95.208 707.406 97.16 708.814 99.592C710.286 101.96 711.022 104.904 711.022 108.424C711.022 113.736 708.462 117.928 703.342 121C707.566 122.6 710.446 124.776 711.982 127.528C713.518 130.28 714.286 133.384 714.286 136.84C714.286 143.816 711.726 149.064 706.606 152.584C701.55 156.104 693.998 157.864 683.95 157.864ZM676.366 128.008V145.192C677.454 145.32 678.638 145.416 679.918 145.48C681.198 145.544 682.606 145.576 684.142 145.576C688.622 145.576 692.238 144.936 694.99 143.656C697.742 142.376 699.118 140.008 699.118 136.552C699.118 133.48 697.966 131.304 695.662 130.024C693.358 128.68 690.062 128.008 685.774 128.008H676.366ZM676.366 116.584H683.662C688.27 116.584 691.566 116.008 693.55 114.856C695.534 113.64 696.526 111.72 696.526 109.096C696.526 106.408 695.502 104.52 693.454 103.432C691.406 102.344 688.398 101.8 684.43 101.8C683.15 101.8 681.774 101.832 680.302 101.896C678.83 101.896 677.518 101.96 676.366 102.088V116.584ZM722.914 132.136C722.914 127.656 723.586 123.752 724.93 120.424C726.338 117.032 728.162 114.216 730.402 111.976C732.642 109.736 735.202 108.04 738.082 106.888C741.026 105.736 744.034 105.16 747.106 105.16C754.274 105.16 759.938 107.368 764.098 111.784C768.258 116.136 770.338 122.568 770.338 131.08C770.338 131.912 770.306 132.84 770.242 133.864C770.178 134.824 770.114 135.688 770.05 136.456H737.602C737.922 139.4 739.298 141.736 741.73 143.464C744.162 145.192 747.426 146.056 751.522 146.056C754.146 146.056 756.706 145.832 759.202 145.384C761.762 144.872 763.842 144.264 765.442 143.56L767.362 155.176C766.594 155.56 765.57 155.944 764.29 156.328C763.01 156.712 761.57 157.032 759.97 157.288C758.434 157.608 756.77 157.864 754.978 158.056C753.186 158.248 751.394 158.344 749.602 158.344C745.058 158.344 741.09 157.672 737.698 156.328C734.37 154.984 731.586 153.16 729.346 150.856C727.17 148.488 725.538 145.704 724.45 142.504C723.426 139.304 722.914 135.848 722.914 132.136ZM756.514 126.664C756.45 125.448 756.226 124.264 755.842 123.112C755.522 121.96 754.978 120.936 754.21 120.04C753.506 119.144 752.578 118.408 751.426 117.832C750.338 117.256 748.962 116.968 747.298 116.968C745.698 116.968 744.322 117.256 743.17 117.832C742.018 118.344 741.058 119.048 740.29 119.944C739.522 120.84 738.914 121.896 738.466 123.112C738.082 124.264 737.794 125.448 737.602 126.664H756.514ZM800.672 147.016C802.08 147.016 803.424 146.984 804.704 146.92C805.984 146.856 807.008 146.76 807.776 146.632V135.784C807.2 135.656 806.336 135.528 805.184 135.4C804.032 135.272 802.976 135.208 802.016 135.208C800.672 135.208 799.392 135.304 798.176 135.496C797.024 135.624 796 135.912 795.104 136.36C794.208 136.808 793.504 137.416 792.992 138.184C792.48 138.952 792.224 139.912 792.224 141.064C792.224 143.304 792.96 144.872 794.432 145.768C795.968 146.6 798.048 147.016 800.672 147.016ZM799.52 105.16C803.744 105.16 807.264 105.64 810.08 106.6C812.896 107.56 815.136 108.936 816.8 110.728C818.528 112.52 819.744 114.696 820.448 117.256C821.152 119.816 821.504 122.664 821.504 125.8V155.56C819.456 156.008 816.608 156.52 812.96 157.096C809.312 157.736 804.896 158.056 799.712 158.056C796.448 158.056 793.472 157.768 790.784 157.192C788.16 156.616 785.888 155.688 783.968 154.408C782.048 153.064 780.576 151.336 779.552 149.224C778.528 147.112 778.016 144.52 778.016 141.448C778.016 138.504 778.592 136.008 779.744 133.96C780.96 131.912 782.56 130.28 784.544 129.064C786.528 127.848 788.8 126.984 791.36 126.472C793.92 125.896 796.576 125.608 799.328 125.608C801.184 125.608 802.816 125.704 804.224 125.896C805.696 126.024 806.88 126.216 807.776 126.472V125.128C807.776 122.696 807.04 120.744 805.568 119.272C804.096 117.8 801.536 117.064 797.888 117.064C795.456 117.064 793.056 117.256 790.688 117.64C788.32 117.96 786.272 118.44 784.544 119.08L782.72 107.56C783.552 107.304 784.576 107.048 785.792 106.792C787.072 106.472 788.448 106.216 789.92 106.024C791.392 105.768 792.928 105.576 794.528 105.448C796.192 105.256 797.856 105.16 799.52 105.16ZM877.543 155.272C875.111 155.976 871.975 156.616 868.135 157.192C864.295 157.832 860.263 158.152 856.039 158.152C851.751 158.152 848.167 157.576 845.287 156.424C842.471 155.272 840.231 153.672 838.567 151.624C836.903 149.512 835.719 147.016 835.015 144.136C834.311 141.256 833.959 138.088 833.959 134.632V106.504H848.263V132.904C848.263 137.512 848.871 140.84 850.087 142.888C851.303 144.936 853.575 145.96 856.903 145.96C857.927 145.96 859.015 145.928 860.167 145.864C861.319 145.736 862.343 145.608 863.239 145.48V106.504H877.543V155.272ZM890.49 93.928L904.794 91.624V106.504H921.978V118.408H904.794V136.168C904.794 139.176 905.306 141.576 906.33 143.368C907.418 145.16 909.562 146.056 912.762 146.056C914.298 146.056 915.866 145.928 917.466 145.672C919.13 145.352 920.634 144.936 921.978 144.424L923.994 155.56C922.266 156.264 920.346 156.872 918.234 157.384C916.122 157.896 913.53 158.152 910.458 158.152C906.554 158.152 903.322 157.64 900.762 156.616C898.202 155.528 896.154 154.056 894.618 152.2C893.082 150.28 891.994 147.976 891.354 145.288C890.778 142.6 890.49 139.624 890.49 136.36V93.928ZM979.396 106.504C976.516 116.232 973.508 125.352 970.372 133.864C967.236 142.376 963.812 150.632 960.1 158.632C958.756 161.512 957.412 163.944 956.068 165.928C954.724 167.976 953.252 169.64 951.652 170.92C950.052 172.264 948.228 173.224 946.18 173.8C944.196 174.44 941.86 174.76 939.172 174.76C936.932 174.76 934.852 174.536 932.932 174.088C931.076 173.704 929.54 173.256 928.324 172.744L930.82 161.32C932.292 161.832 933.604 162.184 934.756 162.376C935.908 162.568 937.124 162.664 938.404 162.664C940.964 162.664 942.916 161.96 944.26 160.552C945.668 159.208 946.852 157.32 947.812 154.888C944.548 148.488 941.284 141.32 938.02 133.384C934.756 125.384 931.684 116.424 928.804 106.504H943.972C944.612 109 945.348 111.72 946.18 114.664C947.076 117.544 948.004 120.488 948.964 123.496C949.924 126.44 950.884 129.32 951.844 132.136C952.868 134.952 953.828 137.512 954.724 139.816C955.556 137.512 956.42 134.952 957.316 132.136C958.212 129.32 959.076 126.44 959.908 123.496C960.804 120.488 961.636 117.544 962.404 114.664C963.236 111.72 963.972 109 964.612 106.504H979.396Z" fill="#61D9E0"/>
<circle cx="989.387" cy="177.613" r="9.38686" fill="#61E0A7"/>
<script xmlns=""/></svg>